<?xml version="1.0" ?><svg enable-background="new 0 0 128 128" id="Слой_1" version="1.1" viewBox="0 0 128 128" xml:space="preserve" xmlns="http://www.w3.org/2000/svg" xmlns:xlink="http://www.w3.org/1999/xlink"><path d="M99,110H17c-0.6,0-1-0.4-1-1V15c0-0.6,0.4-1,1-1h82c0.6,0,1,0.4,1,1v94  C100,109.6,99.6,110,99,110z" fill="#FFF3E0" id="frame_1_"/><path d="M93,94H23c-0.6,0-1-0.4-1-1V21c0-0.6,0.4-1,1-1h70c0.6,0,1,0.4,1,1v72C94,93.6,93.6,94,93,94z  " fill="#263238" id="photo_1_"/><g id="Leica_1_"><path d="M67,27.6l-1,2.3l0.9,0.4l0.8-1.8l2.7,1.3l-5.9,12.7l-2.7-1.3l0.8-1.8L61.8,39l-1,2.3c-0.1,0.3,0,0.5,0.2,0.7l3.6,1.7   c0.3,0.1,0.5,0,0.7-0.2l6.3-13.6c0.1-0.3,0-0.5-0.2-0.7l-3.6-1.7C67.5,27.3,67.2,27.4,67,27.6z"/><polygon points="47.8,76.6 47.8,79.8 45.7,81.1 43.9,80.3 46,75.8  "/><polygon fill="#3E2723" points="49.5,73 49.3,76.3 47,78.4 45.2,77.6 47.7,72.1  "/><polygon points="62,45.7 62,47.9 59.2,53.9 57.9,54.8 50.6,51.4 54.8,42.4  "/><path d="M54.1,63l0.6,2.9l-2.1,4.5l-1.8-0.1c-0.2,0.5-0.8,0.7-1.3,0.5l-1.8-0.8c-0.5-0.2-0.7-0.8-0.5-1.3l3.3-7.3   c0.2-0.5,0.8-0.7,1.3-0.5l1.8,0.8C54.1,61.9,54.3,62.5,54.1,63z M40.4,83.1l-1.8-0.8c-0.5-0.2-1.1,0-1.3,0.5l-5,10.9   c-0.2,0.5,0,1.1,0.5,1.3l1.8,0.8c0.5,0.2,1.1,0,1.3-0.5l0.4-0.9l3-4.5l1.2-4.6l0.4-0.9C41.1,83.9,40.9,83.3,40.4,83.1z M74.5,16.2   l-1.8-0.8c-0.5-0.2-1.1,0-1.3,0.5L68,23.1c-0.2,0.5,0,1.1,0.5,1.3l1.8,0.8c0.5,0.2,1.1,0,1.3-0.5l1.5-0.8l2.3-5L75,17.5   C75.2,17,75,16.4,74.5,16.2z" fill="#FFAB00"/><polygon fill="#4E342E" points="44.5,83.9 44.4,86.5 39.4,97.4 37.8,98.4 36.3,94.4 40.5,85.3  "/><polygon fill="#424242" points="110.2,27.1 81.1,13.8 78.1,15.5 39.3,99.8 40.2,102.8 69.2,116.2 72.2,114.5 111.4,29.3  "/><path d="M37.4,101.5c-0.5-0.2-0.7-0.8-0.5-1.3L77.1,13c0.2-0.5,0.8-0.7,1.3-0.5l2.7,1.3l-41,89L37.4,101.5z    M110.2,27.1l-41,89l2.7,1.3c0.5,0.2,1.1,0,1.3-0.5l40.1-87.2c0.2-0.5,0-1.1-0.5-1.3C112.9,28.4,110.2,27.1,110.2,27.1z" fill="#212121"/><rect fill="#BBDEFB" height="4" transform="matrix(0.418 -0.9085 0.9085 0.418 -11.3502 79.4241)" width="6" x="53.3" y="46.6"/><ellipse cx="77.2" cy="58.2" rx="17" ry="17" transform="matrix(0.4179 -0.9085 0.9085 0.4179 -7.9212 104.0018)"/><path d="M59.2,63c-0.5,0.2-1,0.7-1.2,1.2c-0.6,1.3,0,2.7,1.2,3.3c0.5,0.2,1.1,0.3,1.6,0.1l5.8-1.1l-2.4-6.1L59.2,63   z" fill="#212121"/><ellipse cx="60.2" cy="65.2" fill="#FFAB00" rx="1.5" ry="1.5" transform="matrix(0.418 -0.9085 0.9085 0.418 -24.2112 92.6554)"/><ellipse cx="77.2" cy="58.2" fill="#212121" rx="14" ry="14" transform="matrix(0.4179 -0.9085 0.9085 0.4179 -7.9211 104.0018)"/><ellipse cx="77.2" cy="58.2" fill="#0D47A1" rx="9" ry="9" transform="matrix(0.4179 -0.9085 0.9085 0.4179 -7.921 104.002)"/></g></svg>